<?xml version="1.0" encoding="UTF-8"?>
<svg id="Ebene_1" data-name="Ebene 1" xmlns="http://www.w3.org/2000/svg" viewBox="0 0 765.35 172">
  <defs>
    <style>
      .cls-1 {
        fill: #80cbc4;
      }

      .cls-1, .cls-2 {
        fill-rule: evenodd;
      }

      .cls-2 {
        fill: #00796b;
      }
    </style>
  </defs>
  <g>
    <path class="cls-2" d="M715.94,19.11c26.33,0,47.67,21.39,47.67,47.78v38.22c0,26.39-21.34,47.78-47.67,47.78h-9.53v-19.11h9.53c15.79,0,28.6-12.83,28.6-28.67v-38.22c0-15.83-12.8-28.67-28.6-28.67h-28.6v114.67h-19.07V19.11h47.67Z"/>
    <path class="cls-2" d="M439.47,57.34v47.78c0,15.84,12.81,28.67,28.61,28.67h47.67v19.1h-47.67c-26.32,0-47.67-21.39-47.67-47.78v-47.78h19.06Z"/>
    <path class="cls-2" d="M439.47,19.11v57.33h-19.06V19.11h19.06Z"/>
    <path class="cls-2" d="M458.55,19.11h9.53c26.32,0,47.67,21.39,47.67,47.78v28.66h-95.33v-19.1h76.27v-9.56c0-15.84-12.81-28.67-28.61-28.67h-9.53v-19.1Z"/>
    <path class="cls-2" d="M544.34,19.11v57.33s0,28.67,0,28.67c0,26.38,21.34,47.77,47.67,47.77h47.67v-19.11h-47.67c-15.8,0-28.6-12.83-28.6-28.66v-38.22h0V19.11h-19.07Z"/>
    <path class="cls-2" d="M639.68,152.88v-86c0-26.39-21.34-47.77-47.67-47.77h-47.67v19.11h47.67c15.8,0,28.6,12.83,28.6,28.66v38.22h0v47.78h19.07Z"/>
  </g>
  <path class="cls-1" d="M248.31,19.11v133.81h-19.11V19.11s19.11,0,19.11,0ZM305.66,114.68v-47.79c0-15.83-12.84-28.67-28.67-28.67h-9.56v-19.12h9.56c26.39,0,47.79,21.39,47.79,47.79v28.68h0v57.34h-19.11v-38.24ZM372.56,114.68v-47.79c0-15.83-12.84-28.67-28.67-28.67h-9.56v-19.12h9.56c26.39,0,47.79,21.39,47.79,47.79v28.68h0v57.34h-19.12v-38.24Z"/>
  <g>
    <path class="cls-2" d="M19.11,124.3V19.11h57.32v9.56c0,15.87-12.86,28.73-28.72,28.73h-9.58v19.15h9.58c26.44,0,47.87-21.44,47.87-47.88v-9.56h0V0H.01v16.64H0v107.67C0,150.63,21.39,171.97,47.78,171.97h9.56v-19.07h-9.56c-15.83,0-28.67-12.8-28.67-28.6Z"/>
    <path class="cls-2" d="M171.84,152.85V47.67c0-26.33-21.39-47.67-47.78-47.67h-9.55v19.07h9.55c15.83,0,28.67,12.8,28.67,28.6v105.19h-57.27v-9.55c0-15.87,12.86-28.73,28.72-28.73h9.58v-19.15h-9.58c-26.44,0-47.87,21.44-47.87,47.88v28.67h95.54s0-19.11,0-19.11h0Z"/>
  </g>
</svg>